<svg version="1.1" xmlns="http://www.w3.org/2000/svg" xmlns:xlink="http://www.w3.org/1999/xlink"
	 width="1024px" height="1024px" viewBox="0 0 1024 1024">
<path fill="#8AC953" d="M512,90C276.727,90,86,280.727,86,516s190.727,426,426,426s426-190.727,426-426S747.273,90,512,90z
	 M513,913.999c-220.914,0-400-179.086-400-399.999c0-220.914,179.086-400,400-400s400,179.086,400,400
	C913,734.913,733.914,913.999,513,913.999z"/>
<path fill="#8AC953" d="M512,138.5c0,0-104.5,144-104.5,377.5c0,217.5,104.5,364.5,104.5,364.5s101.5-134,101.5-364.5
	C613.5,272.5,512,138.5,512,138.5z"/>
<path fill="#8AC953" d="M149.318,514.421c0,0-7.836,134.201,92.476,249.372c93.437,107.276,226.285,116.604,226.285,116.604
	s-8.475-108.851-107.497-222.54C255.975,537.757,149.318,514.421,149.318,514.421z"/>
<path fill="#8AC953" d="M874.936,514.421c0,0,7.836,134.201-92.475,249.372c-93.438,107.276-226.285,116.604-226.285,116.604
	s8.475-108.851,107.496-222.54C768.279,537.757,874.936,514.421,874.936,514.421z"/>
</svg>